<?xml version="1.0" encoding="utf-8"?>
<!-- Generator: Adobe Illustrator 26.3.1, SVG Export Plug-In . SVG Version: 6.00 Build 0)  -->
<svg version="1.1" id="Layer_1" xmlns="http://www.w3.org/2000/svg" xmlns:xlink="http://www.w3.org/1999/xlink" x="0px" y="0px"
	 viewBox="0 0 529.93 434" style="enable-background:new 0 0 529.93 434;" xml:space="preserve">
<style type="text/css">
	.st0{fill:#F5B5A9;}
	.st1{fill:#F8CDC5;}
	.st2{fill:#BBD3FF;}
	.st3{fill:#D12439;}
	.st4{fill:#F7B42F;}
	.st5{fill:#E4EEFF;}
	.st6{fill:#F29495;}
	.st7{fill:#FFBB33;}
	.st8{fill:#FFEC9C;}
	.st9{fill:#272F57;}
	.st10{fill:#962F4A;}
	.st11{fill:#E1617F;}
	.st12{fill:#FFFFFF;}
	.st13{fill:#FFFDFD;}
	.st14{fill:#3377F8;}
</style>
<path class="st0" d="M153.91,130.91c-7.28-1.44-13.23-8.63-13.29-16.05l-0.2-25.42c-0.06-7.42,5.8-12.27,13.08-10.83l0,0
	c7.28,1.44,13.23,8.63,13.29,16.05l0.2,25.42C167.05,127.5,161.19,132.35,153.91,130.91L153.91,130.91z"/>
<path class="st0" d="M133.8,122.96c-6.69,4.91-16.18,3.53-21.18-3.1L90.25,90.28c-5.01-6.62-3.64-15.97,3.05-20.88l0,0
	c6.69-4.91,16.18-3.52,21.18,3.1l22.36,29.59C141.86,108.7,140.49,118.05,133.8,122.96L133.8,122.96z"/>
<path class="st0" d="M147.14,121.53c-7.55,3.44-16.56,0.15-20.1-7.36l-15.85-33.53c-3.55-7.51-0.3-16.38,7.25-19.82l0,0
	c7.55-3.44,16.56-0.15,20.1,7.36l15.85,33.53C157.95,109.21,154.7,118.09,147.14,121.53L147.14,121.53z"/>
<path class="st0" d="M115.39,126.67c-6.78,4.98-16.39,3.57-21.46-3.14l-16.08-21.28c-5.07-6.71-3.69-16.18,3.1-21.16l0,0
	c6.78-4.98,16.39-3.57,21.46,3.14l16.08,21.28C123.56,112.22,122.17,121.69,115.39,126.67L115.39,126.67z"/>
<path class="st0" d="M198.81,231.31c-15.26,5.11-33.13-2.58-39.92-17.16l-1.49-3.21c-6.79-14.58,0.07-30.55,15.33-35.65l43-14.39
	c15.26-5.11,33.13,2.58,39.92,17.16l1.49,3.21c6.79,14.58-0.07,30.55-15.33,35.65L198.81,231.31z"/>
<path class="st0" d="M97.34,123.7c-8.21-14.82-2.34-32.47,13.1-39.43l0,0c15.45-6.96,34.62-0.59,42.83,14.23l54.16,97.77
	c8.21,14.82,2.34,32.47-13.1,39.43l0,0c-15.45,6.96-34.62,0.59-42.83-14.23L97.34,123.7z"/>
<path class="st0" d="M97.34,123.7c-8.21-14.82-2.34-32.47,13.1-39.43l0,0c15.45-6.96,34.62-0.59,42.83,14.23l54.16,97.77
	c8.21,14.82,2.34,32.47-13.1,39.43l0,0c-15.45,6.96-34.62,0.59-42.83-14.23L97.34,123.7z"/>
<path class="st1" d="M192.44,237.64c0.61-0.28,1.2-0.58,1.78-0.9c0.57-0.15,1.13-0.32,1.7-0.51l49-16.51
	c10.08-3.39,15.94-13.41,14.81-25.34c-2.58,5.12-6.88,8.86-12.24,10.65l-39.86,13.42l-9.12,3.08c-0.57,0.2-1.15,0.36-1.73,0.52
	c-0.58,0.16-1.15,0.61-1.75,0.88c-7.8,3.54-17.26,3.33-26.32-0.59c-9.06-3.92-16.96-11.23-21.97-20.31l-38.66-70.09l-8.02-14.51
	c-0.8-1.45-1.52-2.94-2.16-4.45c-17.23-11.54-19.08-25.02-19.8-27.62c-4.77,5.65-4.3,14.95,1.14,22.17l11.96,15.96
	c1.18,1.58,2.57,3,4.1,4.2c0.63,1.51,1.35,2.99,2.15,4.43l46.66,84.59c5.01,9.1,12.93,16.42,22,20.35
	C175.16,240.99,184.64,241.2,192.44,237.64L192.44,237.64z"/>
<circle class="st2" cx="226.87" cy="193.6" r="36.81"/>
<path class="st0" d="M250.14,112.42h37.3v43.51h-37.3V112.42z"/>
<path class="st3" d="M216.97,228.6H320.6v91.57H216.97V228.6z"/>
<ellipse class="st4" cx="226.39" cy="66.13" rx="11.42" ry="22.92"/>
<path class="st5" d="M348.43,206.5c-0.01,27.06-21.69,49-48.45,49h-57.11c-26.75,0-48.44-21.94-48.44-49s21.69-49,48.44-49h57.11
	c12.85,0,25.17,5.16,34.26,14.35C343.32,181.03,348.42,193.5,348.43,206.5z"/>
<path class="st6" d="M287.44,112.42v13.01c-7.2,9.24-17.26,15.82-28.61,18.72c-2.85,0.73-5.76,1.22-8.69,1.45v-33.18H287.44z"/>
<path class="st0" d="M307.29,63.96l-1.35,23.09c-1.73,29.15-26.75,51.39-55.91,49.69c-8.42-0.5-16.3-4.32-21.9-10.62
	c-5.6-6.31-8.47-14.58-7.97-23l1.96-32.79l0.33-5.54l0.12-2.04l0.35-6.05c0.41-7.02,3.59-13.58,8.84-18.25
	c5.25-4.67,12.15-7.05,19.17-6.63l5.72,0.33l23.64,1.39c3.05,0.17,6.06,0.83,8.9,1.96c6.07,2.41,11.14,6.81,14.39,12.47
	C306.35,52.82,307.64,58.38,307.29,63.96L307.29,63.96z"/>
<path class="st6" d="M300.06,65.12c-5.78,14.99-31.29,19.12-56.97,9.22c-7.4-2.82-14.33-6.73-20.58-11.59l0.35-6.05
	c0.41-7.02,3.59-13.58,8.84-18.25c5.25-4.67,12.15-7.05,19.17-6.63l5.72,0.33l23.64,1.39c3.05,0.17,6.06,0.83,8.9,1.96
	C298.99,44.97,303.58,56.01,300.06,65.12L300.06,65.12z"/>
<ellipse transform="matrix(0.361 -0.9326 0.9326 0.361 125.1425 271.9199)" class="st7" cx="260.99" cy="44.64" rx="29.03" ry="49.7"/>
<ellipse transform="matrix(0.36 -0.933 0.933 0.36 128.4903 261.344)" class="st8" cx="254.73" cy="37.02" rx="14.95" ry="25.61"/>
<ellipse class="st7" cx="304.08" cy="73.99" rx="11.42" ry="22.92"/>
<path class="st4" d="M315.49,74c0,12.65-5.11,22.92-11.42,22.92c-1.06-0.01-2.11-0.29-3.03-0.82c4.83-2.67,8.39-11.55,8.39-22.1
	c0-2.37-0.18-4.73-0.55-7.07c-0.1-0.62-0.21-1.22-0.33-1.81c1.94-1.06,3.61-2.54,4.9-4.33c0.5,1.41,0.9,2.86,1.21,4.33
	C315.23,68.04,315.51,71.02,315.49,74L315.49,74z"/>
<circle class="st7" cx="307.3" cy="52.01" r="15.01"/>
<path class="st4" d="M322.31,52.04c0,5.44-2.95,10.46-7.7,13.11c-1.76,0.99-3.71,1.61-5.72,1.81c-0.1-0.62-0.22-1.22-0.33-1.81
	c4.74-2.66,7.69-7.67,7.7-13.11c-0.01-7.12-5.01-13.26-11.98-14.7c1-0.2,2.01-0.3,3.03-0.3C315.58,37.03,322.3,43.75,322.31,52.04
	L322.31,52.04z"/>
<circle class="st0" cx="302.04" cy="91.41" r="13.46"/>
<path class="st6" d="M306.1,89.88c0.31,2.32-0.8,4.59-2.81,5.78c-0.48,0.26-1.07,0.26-1.55,0.01c-0.49-0.25-0.82-0.73-0.89-1.27
	l-0.98-7.49c-0.07-0.57,0.15-1.14,0.59-1.51c0.44-0.37,1.04-0.49,1.59-0.31C304.22,85.76,305.8,87.63,306.1,89.88L306.1,89.88z"/>
<circle class="st9" cx="263.68" cy="81.63" r="3.66"/>
<path class="st5" d="M267.43,255.5h-18.7c-29.42,0.01-53.7-20.63-55.22-46.94c-1.52-26.31,20.23-49.08,49.5-51.8
	c1.57-0.15,3.15-0.23,4.75-0.26h19.67c-6.72-0.02-13.39,1.06-19.67,3.19c-1.62,0.56-3.2,1.17-4.75,1.83
	c-5.43,2.41-10.39,5.59-14.68,9.42c-15.81,14.16-20.54,35.45-11.98,53.95c8.56,18.5,28.72,30.56,51.08,30.56V255.5z"/>
<circle class="st9" cx="237.8" cy="81.63" r="3.66"/>
<path class="st10" d="M241.86,109.8c0.2,2.88,1.55,5.55,3.73,7.43c0.27,0.23,0.55,0.44,0.83,0.65c2.05,1.46,4.55,2.15,7.07,1.96
	h0.44c5.66-0.41,10.04-5.11,10.06-10.78c0.02-0.3,0.02-0.6,0-0.9c-0.04-0.56-0.29-1.08-0.72-1.45c-0.42-0.37-0.98-0.55-1.54-0.51
	l-17.91,1.32c-0.57,0.03-1.1,0.29-1.47,0.72C241.99,108.67,241.81,109.23,241.86,109.8L241.86,109.8z"/>
<path class="st11" d="M253.59,118.16c0.04,0.56,0.13,1.11,0.28,1.66h0.06c5.66-0.41,10.04-5.11,10.06-10.78
	c-2.66-0.57-5.43,0.15-7.48,1.94c-2.05,1.79-3.13,4.44-2.93,7.15V118.16z"/>
<path class="st12" d="M244.2,107.51c0.25,2.12,3.65,3.58,7.67,3.28s7.18-2.24,7.11-4.38L244.2,107.51z"/>
<path class="st5" d="M296.66,153.55v17.07h-55.75v-17.07c0-5.13,4.1-9.31,9.22-9.42h37.31
	C292.57,144.23,296.66,148.42,296.66,153.55L296.66,153.55z"/>
<circle class="st2" cx="315.5" cy="193.6" r="36.81"/>
<path class="st0" d="M354.67,260.41c0.16,15.77-12.49,28.68-28.25,28.84l0,0c-15.77,0.16-28.68-12.49-28.84-28.25l-0.58-56.37
	c-0.16-15.77,12.49-28.68,28.25-28.84l0,0c15.77-0.16,28.68,12.49,28.84,28.25L354.67,260.41z"/>
<path class="st0" d="M223.28,291.69c-15.41-0.18-27.76-12.83-27.57-28.24l0,0c0.18-15.41,12.83-27.76,28.24-27.57l103.03,1.23
	c15.41,0.18,27.76,12.83,27.57,28.24l0,0c-0.18,15.41-12.83,27.76-28.24,27.57L223.28,291.69z"/>
<path class="st13" d="M29.22,301.65C12.65,317.31,7,341.91,14.98,363.66c7.98,21.75,27.96,36.23,50.38,36.52l298.56,3.72l97.32,1.2
	c19.5,0.24,37.64-10.34,47.58-27.75s10.18-39,0.62-56.65c-9.56-17.65-27.47-28.66-46.97-28.9l-395.79-4.9
	C52.84,286.7,39.45,291.98,29.22,301.65z"/>
<path class="st14" d="M83.45,362.5v-31.29h10.21c3.3,0,6.17,0.67,8.61,2.02c2.46,1.32,4.37,3.15,5.71,5.5
	c1.34,2.32,2.02,5.03,2.02,8.11c0,3.05-0.67,5.77-2.02,8.15c-1.34,2.35-3.25,4.2-5.71,5.54c-2.44,1.32-5.31,1.97-8.61,1.97H83.45z
	 M89.16,357.46h4.62c2.13,0,3.96-0.43,5.5-1.3c1.57-0.9,2.79-2.13,3.65-3.7c0.87-1.6,1.3-3.47,1.3-5.63c0-2.18-0.43-4.06-1.3-5.63
	c-0.87-1.57-2.09-2.79-3.65-3.65c-1.54-0.87-3.37-1.3-5.5-1.3h-4.62V357.46z M125.25,363c-2.24,0-4.28-0.52-6.13-1.55
	c-1.82-1.04-3.28-2.45-4.37-4.24c-1.06-1.79-1.6-3.84-1.6-6.13c0-2.3,0.53-4.34,1.6-6.13c1.09-1.79,2.55-3.21,4.37-4.24
	s3.86-1.55,6.13-1.55c2.24,0,4.27,0.52,6.09,1.55c1.82,1.04,3.26,2.45,4.33,4.24c1.09,1.76,1.64,3.81,1.64,6.13
	c0,2.3-0.55,4.34-1.64,6.13c-1.09,1.79-2.55,3.21-4.37,4.24C129.48,362.48,127.46,363,125.25,363z M125.25,357.96
	c1.23,0,2.31-0.29,3.23-0.88c0.95-0.59,1.69-1.4,2.23-2.44c0.56-1.06,0.84-2.25,0.84-3.57c0-1.34-0.28-2.52-0.84-3.53
	c-0.53-1.04-1.27-1.85-2.23-2.44c-0.92-0.62-2-0.92-3.23-0.92c-1.26,0-2.37,0.31-3.32,0.92c-0.95,0.59-1.71,1.4-2.27,2.44
	c-0.53,1.01-0.8,2.18-0.8,3.53c0,1.32,0.27,2.51,0.8,3.57c0.56,1.04,1.32,1.85,2.27,2.44C122.88,357.67,123.99,357.96,125.25,357.96
	z M146.82,362.5l-7.85-22.85h5.8l5.75,17.35l-2.02-0.04l6.13-17.3h4.87l6.09,17.3l-2.02,0.04l5.75-17.35h5.8l-7.85,22.85h-4.91
	l-6.22-18.1h1.85l-6.3,18.1H146.82z M178.14,362.5v-22.85h5.17v4.49l-0.42-0.8c0.53-1.37,1.4-2.41,2.6-3.11
	c1.23-0.73,2.66-1.09,4.28-1.09c1.68,0,3.16,0.36,4.45,1.09c1.32,0.73,2.34,1.75,3.07,3.07c0.73,1.29,1.09,2.79,1.09,4.49v14.7h-5.5
	v-13.4c0-1.01-0.2-1.88-0.59-2.6c-0.39-0.73-0.94-1.29-1.64-1.68c-0.67-0.42-1.47-0.63-2.39-0.63c-0.9,0-1.69,0.21-2.39,0.63
	c-0.7,0.39-1.25,0.95-1.64,1.68c-0.39,0.73-0.59,1.6-0.59,2.6v13.4H178.14z M203.04,362.5V330.7h5.5v31.79H203.04z M224.8,363
	c-2.24,0-4.28-0.52-6.13-1.55c-1.82-1.04-3.28-2.45-4.37-4.24c-1.06-1.79-1.6-3.84-1.6-6.13c0-2.3,0.53-4.34,1.6-6.13
	c1.09-1.79,2.55-3.21,4.37-4.24c1.82-1.04,3.86-1.55,6.13-1.55c2.24,0,4.27,0.52,6.09,1.55c1.82,1.04,3.26,2.45,4.33,4.24
	c1.09,1.76,1.64,3.81,1.64,6.13c0,2.3-0.55,4.34-1.64,6.13c-1.09,1.79-2.55,3.21-4.37,4.24C229.02,362.48,227.01,363,224.8,363z
	 M224.8,357.96c1.23,0,2.31-0.29,3.23-0.88c0.95-0.59,1.69-1.4,2.23-2.44c0.56-1.06,0.84-2.25,0.84-3.57c0-1.34-0.28-2.52-0.84-3.53
	c-0.53-1.04-1.27-1.85-2.23-2.44c-0.92-0.62-2-0.92-3.23-0.92c-1.26,0-2.37,0.31-3.32,0.92c-0.95,0.59-1.71,1.4-2.27,2.44
	c-0.53,1.01-0.8,2.18-0.8,3.53c0,1.32,0.27,2.51,0.8,3.57c0.56,1.04,1.32,1.85,2.27,2.44C222.43,357.67,223.54,357.96,224.8,357.96z
	 M247.95,363c-1.6,0-2.98-0.27-4.16-0.8c-1.18-0.53-2.09-1.29-2.73-2.27c-0.64-1.01-0.97-2.17-0.97-3.49c0-1.26,0.28-2.38,0.84-3.36
	c0.56-1.01,1.43-1.85,2.6-2.52c1.18-0.67,2.66-1.15,4.45-1.43l7.48-1.22v4.2l-6.43,1.09c-1.09,0.2-1.9,0.55-2.44,1.05
	s-0.8,1.16-0.8,1.97c0,0.78,0.29,1.41,0.88,1.89c0.62,0.45,1.37,0.67,2.27,0.67c1.15,0,2.16-0.24,3.02-0.71
	c0.9-0.5,1.58-1.19,2.06-2.06c0.5-0.87,0.76-1.82,0.76-2.86v-5.88c0-0.98-0.39-1.79-1.18-2.44c-0.76-0.67-1.76-1.01-3.02-1.01
	c-1.18,0-2.23,0.32-3.15,0.97c-0.9,0.62-1.55,1.44-1.97,2.48l-4.49-2.18c0.45-1.2,1.15-2.24,2.1-3.11c0.98-0.9,2.13-1.6,3.44-2.1
	s2.74-0.76,4.28-0.76c1.88,0,3.53,0.35,4.96,1.05c1.43,0.67,2.53,1.62,3.32,2.86c0.81,1.2,1.22,2.62,1.22,4.24v15.2h-5.21v-3.91
	l1.18-0.08c-0.59,0.98-1.29,1.81-2.1,2.48c-0.81,0.64-1.74,1.15-2.77,1.51C250.36,362.83,249.21,363,247.95,363z M276.01,363
	c-2.21,0-4.19-0.52-5.92-1.55c-1.74-1.06-3.11-2.51-4.12-4.33c-1.01-1.82-1.51-3.84-1.51-6.05c0-2.24,0.5-4.26,1.51-6.05
	c1.01-1.79,2.38-3.22,4.12-4.28c1.76-1.06,3.72-1.6,5.88-1.6c1.74,0,3.28,0.35,4.62,1.05c1.37,0.67,2.45,1.62,3.23,2.86l-0.84,1.13
	V330.7h5.5v31.79h-5.21v-4.41l0.59,1.09c-0.78,1.23-1.88,2.18-3.28,2.86C279.19,362.68,277.66,363,276.01,363z M276.6,357.96
	c1.26,0,2.37-0.29,3.32-0.88s1.69-1.4,2.23-2.44c0.56-1.04,0.84-2.23,0.84-3.57c0-1.32-0.28-2.49-0.84-3.53
	c-0.53-1.06-1.27-1.89-2.23-2.48c-0.95-0.59-2.06-0.88-3.32-0.88c-1.23,0-2.34,0.31-3.32,0.92c-0.98,0.59-1.75,1.4-2.31,2.44
	c-0.53,1.01-0.8,2.18-0.8,3.53c0,1.34,0.27,2.53,0.8,3.57c0.56,1.04,1.33,1.85,2.31,2.44S275.37,357.96,276.6,357.96z
	 M311.48,362.75c-2.58,0-4.58-0.7-6.01-2.1c-1.4-1.43-2.1-3.43-2.1-6.01v-10.08h-3.95v-4.91h0.42c1.12,0,1.99-0.29,2.6-0.88
	c0.62-0.59,0.92-1.44,0.92-2.56v-1.76h5.5v5.21h5.25v4.91h-5.25v9.79c0,0.76,0.13,1.4,0.38,1.93c0.28,0.53,0.7,0.94,1.26,1.22
	c0.59,0.28,1.33,0.42,2.23,0.42c0.2,0,0.42-0.01,0.67-0.04c0.28-0.03,0.55-0.06,0.8-0.08v4.7c-0.39,0.06-0.84,0.11-1.34,0.17
	S311.9,362.75,311.48,362.75z M318.42,362.5V330.7h5.5v13.44l-0.76-0.8c0.53-1.37,1.4-2.41,2.6-3.11c1.23-0.73,2.66-1.09,4.28-1.09
	c1.68,0,3.16,0.36,4.45,1.09c1.32,0.73,2.34,1.75,3.07,3.07c0.73,1.29,1.09,2.79,1.09,4.49v14.7h-5.5v-13.4
	c0-1.01-0.2-1.88-0.59-2.6c-0.39-0.73-0.94-1.29-1.64-1.68c-0.67-0.42-1.47-0.63-2.39-0.63c-0.9,0-1.69,0.21-2.39,0.63
	c-0.7,0.39-1.25,0.95-1.64,1.68c-0.39,0.73-0.59,1.6-0.59,2.6v13.4H318.42z M354.15,363c-2.35,0-4.41-0.53-6.17-1.6
	c-1.76-1.06-3.14-2.51-4.12-4.33c-0.98-1.82-1.47-3.84-1.47-6.05c0-2.3,0.49-4.33,1.47-6.09c1.01-1.79,2.37-3.21,4.07-4.24
	c1.74-1.04,3.67-1.55,5.8-1.55c1.79,0,3.36,0.29,4.7,0.88c1.37,0.59,2.53,1.4,3.49,2.44c0.95,1.04,1.68,2.23,2.18,3.57
	c0.5,1.32,0.76,2.74,0.76,4.28c0,0.39-0.03,0.8-0.08,1.22c-0.03,0.42-0.1,0.78-0.21,1.09h-17.64v-4.2h14.53l-2.6,1.97
	c0.25-1.29,0.18-2.44-0.21-3.44c-0.36-1.01-0.98-1.81-1.85-2.39c-0.84-0.59-1.86-0.88-3.07-0.88c-1.15,0-2.17,0.29-3.07,0.88
	c-0.9,0.56-1.58,1.4-2.06,2.52c-0.45,1.09-0.62,2.42-0.5,3.99c-0.11,1.4,0.07,2.65,0.55,3.74c0.5,1.06,1.23,1.89,2.18,2.48
	c0.98,0.59,2.1,0.88,3.36,0.88c1.26,0,2.32-0.27,3.19-0.8c0.9-0.53,1.6-1.25,2.1-2.14l4.45,2.18c-0.45,1.09-1.15,2.06-2.1,2.9
	s-2.09,1.5-3.4,1.97C357.15,362.76,355.72,363,354.15,363z M383.43,363c-1.6,0-2.98-0.27-4.16-0.8c-1.18-0.53-2.09-1.29-2.73-2.27
	c-0.64-1.01-0.97-2.17-0.97-3.49c0-1.26,0.28-2.38,0.84-3.36c0.56-1.01,1.43-1.85,2.6-2.52s2.66-1.15,4.45-1.43l7.48-1.22v4.2
	l-6.43,1.09c-1.09,0.2-1.9,0.55-2.44,1.05c-0.53,0.5-0.8,1.16-0.8,1.97c0,0.78,0.29,1.41,0.88,1.89c0.62,0.45,1.37,0.67,2.27,0.67
	c1.15,0,2.16-0.24,3.02-0.71c0.9-0.5,1.58-1.19,2.06-2.06c0.5-0.87,0.76-1.82,0.76-2.86v-5.88c0-0.98-0.39-1.79-1.18-2.44
	c-0.76-0.67-1.76-1.01-3.02-1.01c-1.18,0-2.23,0.32-3.15,0.97c-0.9,0.62-1.55,1.44-1.97,2.48l-4.49-2.18
	c0.45-1.2,1.15-2.24,2.1-3.11c0.98-0.9,2.13-1.6,3.44-2.1c1.32-0.5,2.74-0.76,4.28-0.76c1.88,0,3.53,0.35,4.96,1.05
	c1.43,0.67,2.53,1.62,3.32,2.86c0.81,1.2,1.22,2.62,1.22,4.24v15.2h-5.21v-3.91l1.18-0.08c-0.59,0.98-1.29,1.81-2.1,2.48
	c-0.81,0.64-1.74,1.15-2.77,1.51C385.83,362.83,384.69,363,383.43,363z M400.86,370.9v-31.25h5.17v4.54l-0.5-1.13
	c0.78-1.23,1.85-2.18,3.19-2.86c1.34-0.7,2.9-1.05,4.66-1.05c2.16,0,4.1,0.53,5.84,1.6c1.74,1.06,3.11,2.49,4.12,4.28
	c1.04,1.79,1.55,3.81,1.55,6.05c0,2.21-0.5,4.23-1.51,6.05s-2.38,3.26-4.12,4.33c-1.74,1.04-3.71,1.55-5.92,1.55
	c-1.65,0-3.18-0.32-4.58-0.97c-1.37-0.67-2.46-1.62-3.28-2.86l0.88-1.09v12.81H400.86z M412.7,357.96c1.26,0,2.38-0.29,3.36-0.88
	c0.98-0.59,1.74-1.4,2.27-2.44c0.56-1.04,0.84-2.23,0.84-3.57c0-1.34-0.28-2.52-0.84-3.53c-0.53-1.04-1.29-1.85-2.27-2.44
	c-0.98-0.62-2.1-0.92-3.36-0.92c-1.2,0-2.3,0.29-3.28,0.88c-0.95,0.59-1.71,1.41-2.27,2.48c-0.53,1.04-0.8,2.21-0.8,3.53
	c0,1.34,0.27,2.53,0.8,3.57c0.56,1.04,1.32,1.85,2.27,2.44C410.41,357.67,411.5,357.96,412.7,357.96z M429.08,370.9v-31.25h5.17
	v4.54l-0.5-1.13c0.78-1.23,1.85-2.18,3.19-2.86c1.34-0.7,2.9-1.05,4.66-1.05c2.16,0,4.1,0.53,5.84,1.6
	c1.74,1.06,3.11,2.49,4.12,4.28c1.04,1.79,1.55,3.81,1.55,6.05c0,2.21-0.5,4.23-1.51,6.05s-2.38,3.26-4.12,4.33
	c-1.74,1.04-3.71,1.55-5.92,1.55c-1.65,0-3.18-0.32-4.58-0.97c-1.37-0.67-2.46-1.62-3.28-2.86l0.88-1.09v12.81H429.08z
	 M440.92,357.96c1.26,0,2.38-0.29,3.36-0.88c0.98-0.59,1.74-1.4,2.27-2.44c0.56-1.04,0.84-2.23,0.84-3.57
	c0-1.34-0.28-2.52-0.84-3.53c-0.53-1.04-1.29-1.85-2.27-2.44c-0.98-0.62-2.1-0.92-3.36-0.92c-1.2,0-2.3,0.29-3.28,0.88
	c-0.95,0.59-1.71,1.41-2.27,2.48c-0.53,1.04-0.8,2.21-0.8,3.53c0,1.34,0.27,2.53,0.8,3.57c0.56,1.04,1.32,1.85,2.27,2.44
	C438.63,357.67,439.72,357.96,440.92,357.96z"/>
<ellipse transform="matrix(0.2566 -0.9665 0.9665 0.2566 -101.9155 388.1792)" class="st0" cx="201.39" cy="260.34" rx="30.97" ry="46.34"/>
<ellipse transform="matrix(0.2894 -0.9572 0.9572 0.2894 -102.3996 383.9287)" class="st1" cx="207.39" cy="260.93" rx="13.67" ry="24.78"/>
<path class="st0" d="M177.91,250.51c-8.37,11.17-6.04,25.97,5.56,35.36l0.61,0.49c0.61,0.48,1.25,0.93,1.91,1.36
	c0.23,0.13,0.44,0.28,0.66,0.43l0.63,0.4l0.12,0.07l0.57,0.31l0.05,0.03c1.19,0.69,2.43,1.31,3.72,1.86
	c0.43,0.19,0.88,0.37,1.33,0.54c0.68,0.27,1.38,0.51,2.07,0.74c0.7,0.23,1.52,0.46,2.3,0.66c1.18,0.3,2.37,0.54,3.58,0.73
	c2.04,0.34,4.11,0.51,6.18,0.52l2.17-0.01l112.91-0.2c11.2-0.03,21.49-4.79,27.38-12.67c0.84-1.11,1.58-2.28,2.21-3.48
	c0.32-0.6,0.61-1.21,0.87-1.84c0.26-0.63,0.51-1.26,0.72-1.92c0.32-0.98,0.58-1.98,0.77-2.98c0.06-0.34,0.13-0.7,0.17-1.03
	c0.12-0.7,0.17-1.37,0.21-2.07c0.04-0.7,0.04-1.41,0.02-2.12c-0.02-0.33-0.03-0.66-0.06-0.99c-0.06-0.9-0.18-1.81-0.36-2.71
	c-0.01-0.07-0.03-0.13-0.04-0.2c-0.04-0.24-0.09-0.48-0.14-0.71c-1.73-7.46-6.96-14.1-14.49-18.4c-0.49-0.27-0.98-0.53-1.47-0.8
	c-5.37-2.77-11.53-4.23-17.75-4.21l-115.03,0.16C194.1,237.87,183.81,242.63,177.91,250.51z"/>
<path class="st0" d="M210.58,222.72c-3.75-3.24-9.9-3.33-13.73-0.18l0,0c-3.84,3.14-3.9,8.32-0.15,11.56l18.8,16.25
	c3.75,3.24,9.9,3.33,13.73,0.18l0,0c3.84-3.14,3.9-8.32,0.15-11.56L210.58,222.72z"/>
<ellipse transform="matrix(0.36 -0.933 0.933 0.36 -116.9642 361.3943)" class="st1" cx="204.93" cy="265.95" rx="14.27" ry="21.83"/>
</svg>
